<svg width="50" height="50" viewBox="0 0 50 50" fill="none" xmlns="http://www.w3.org/2000/svg">
<path fill-rule="evenodd" clip-rule="evenodd" d="M45.5399 14.6371L43.9004 16.2735C40.3484 13.1831 35.7939 11.4547 31.0584 11.4547C27.87 11.4547 24.6834 12.2729 21.9511 13.7269L28.8725 6.81826C29.4189 7.18133 30.0559 7.36372 30.6946 7.36372C31.6048 7.36372 32.5168 7.00065 33.2442 6.2728C34.7009 4.8188 34.7009 2.54492 33.2442 1.09092C32.515 0.363072 31.6048 0 30.6946 0C29.7844 0 28.8725 0.363072 28.145 1.09092C26.9615 2.36423 26.7788 4.1813 27.5985 5.54495L18.855 14.2723L17.2156 12.6359L12.7533 17.09L14.3927 18.7263L5.46642 27.6361C4.91995 27.273 4.28297 27.0906 3.64428 27.0906C2.73407 27.0906 1.82214 27.4537 1.09465 28.1816C-0.362036 29.6356 -0.362036 31.9095 1.09465 33.3634C1.82385 33.9993 2.73407 34.364 3.64428 34.364C4.5545 34.364 5.46642 34.001 6.19391 33.2731C7.37737 32.0918 7.56009 30.2731 6.74038 28.8191L13.6618 21.9105C10.0192 28.9111 10.8389 37.6385 16.2114 43.8192L14.572 45.546L19.1265 50L23.5888 45.546L19.1265 41.0919L17.5776 42.638C12.2956 36.4555 12.0224 27.5475 16.4847 21.0019L17.2139 21.7298L21.7683 17.2758L20.9486 16.5479C23.8637 14.4564 27.4158 13.3655 31.0584 13.3655C35.3396 13.3655 39.3459 14.9115 42.6248 17.6388L40.9854 19.1849L45.5399 23.6389L50.0021 19.1849L45.5399 14.6388V14.6371ZM21.0392 45.5461L19.1265 47.4552L17.2139 45.5461L19.1265 43.637L21.0392 45.5461V45.5461ZM29.419 2.45464C29.7827 2.09157 30.2387 1.90918 30.6946 1.90918C31.1506 1.90918 31.6048 2.09157 31.9703 2.45464C32.6995 3.18249 32.6995 4.27341 31.9703 4.99956C31.6066 5.36263 31.1506 5.54502 30.6946 5.54502C30.2387 5.54502 29.7844 5.36263 29.419 4.99956C28.6898 4.36375 28.6898 3.18078 29.419 2.45464V2.45464ZM4.91822 31.9998C4.55448 32.3629 4.09851 32.5453 3.64255 32.5453C3.18659 32.5453 2.73233 32.3629 2.36688 31.9998C2.00314 31.7271 1.82041 31.2719 1.82041 30.7265C1.82041 30.2714 2.00314 29.818 2.36688 29.4532C2.73063 29.0884 3.18659 28.9077 3.64255 28.9077C4.09851 28.9077 4.55277 29.0901 4.91822 29.4532C5.64742 30.181 5.64742 31.3623 4.91822 31.9981V31.9998ZM17.1234 19.1815L15.2107 17.2724L17.1234 15.3633L19.036 17.2724L17.1234 19.1815V19.1815ZM45.5398 21.0904L43.6272 19.1813L45.5398 17.2722L47.4525 19.1813L45.5398 21.0904V21.0904Z" fill="#333333"/>
</svg>
